<svg xmlns="http://www.w3.org/2000/svg" xmlns:xlink="http://www.w3.org/1999/xlink" width="500" zoomAndPan="magnify" viewBox="0 0 375 374.999991" height="500" preserveAspectRatio="xMidYMid meet" version="1.0"><defs><clipPath id="6cd894eb24"><path d="M 27.5 117.789062 L 319.695312 117.789062 L 319.695312 330.214844 L 27.5 330.214844 Z M 27.5 117.789062 " clip-rule="nonzero"/></clipPath><clipPath id="90bef95490"><path d="M 202.355469 116.398438 L 231.144531 116.398438 L 231.144531 190.769531 L 202.355469 190.769531 Z M 202.355469 116.398438 " clip-rule="nonzero"/></clipPath><clipPath id="a49419903e"><path d="M 235.160156 116.398438 L 263.949219 116.398438 L 263.949219 190.769531 L 235.160156 190.769531 Z M 235.160156 116.398438 " clip-rule="nonzero"/></clipPath><clipPath id="fb8a59fcc0"><path d="M 268.28125 116.398438 L 297.070312 116.398438 L 297.070312 190.769531 L 268.28125 190.769531 Z M 268.28125 116.398438 " clip-rule="nonzero"/></clipPath><clipPath id="fb760886ca"><path d="M 301.40625 116.398438 L 330.195312 116.398438 L 330.195312 190.769531 L 301.40625 190.769531 Z M 301.40625 116.398438 " clip-rule="nonzero"/></clipPath><clipPath id="58f7274673"><path d="M 205 113 L 228 113 L 228 187.871094 L 205 187.871094 Z M 205 113 " clip-rule="nonzero"/></clipPath><clipPath id="05ab0d9acc"><path d="M 238 100 L 261 100 L 261 187.871094 L 238 187.871094 Z M 238 100 " clip-rule="nonzero"/></clipPath><clipPath id="259a6ab701"><path d="M 270 104 L 294 104 L 294 187.871094 L 270 187.871094 Z M 270 104 " clip-rule="nonzero"/></clipPath><clipPath id="f5379d8245"><path d="M 303 77 L 327 77 L 327 187.871094 L 303 187.871094 Z M 303 77 " clip-rule="nonzero"/></clipPath><clipPath id="ee5a5053a5"><path d="M 187.519531 45 L 347.921875 45 L 347.921875 133 L 187.519531 133 Z M 187.519531 45 " clip-rule="nonzero"/></clipPath></defs><g clip-path="url(#6cd894eb24)"><path fill="#ed2224" d="M 263.660156 330.238281 L 83.566406 330.238281 C 52.703125 330.238281 27.683594 305.191406 27.683594 274.296875 L 27.683594 173.730469 C 27.683594 142.835938 52.703125 117.792969 83.566406 117.792969 L 263.660156 117.792969 C 294.523438 117.792969 319.542969 142.835938 319.542969 173.730469 L 319.542969 274.300781 C 319.542969 305.191406 294.523438 330.238281 263.660156 330.238281 Z M 263.660156 330.238281 " fill-opacity="1" fill-rule="nonzero"/></g><path fill="#ffffff" d="M 145.148438 284.976562 L 236.023438 233.226562 C 243.160156 229.164062 243.160156 218.871094 236.027344 214.808594 L 145.148438 163.054688 C 138.09375 159.035156 129.332031 164.136719 129.332031 172.265625 L 129.332031 275.765625 C 129.328125 283.890625 138.09375 288.996094 145.148438 284.976562 Z M 145.148438 284.976562 " fill-opacity="1" fill-rule="nonzero"/><g clip-path="url(#90bef95490)"><path fill="#ffffff" d="M 202.355469 116.398438 L 231.144531 116.398438 L 231.144531 190.769531 L 202.355469 190.769531 Z M 202.355469 116.398438 " fill-opacity="1" fill-rule="nonzero"/></g><g clip-path="url(#a49419903e)"><path fill="#ffffff" d="M 235.160156 116.398438 L 263.949219 116.398438 L 263.949219 190.769531 L 235.160156 190.769531 Z M 235.160156 116.398438 " fill-opacity="1" fill-rule="nonzero"/></g><g clip-path="url(#fb8a59fcc0)"><path fill="#ffffff" d="M 268.28125 116.398438 L 297.070312 116.398438 L 297.070312 190.769531 L 268.28125 190.769531 Z M 268.28125 116.398438 " fill-opacity="1" fill-rule="nonzero"/></g><g clip-path="url(#fb760886ca)"><path fill="#ffffff" d="M 301.40625 116.398438 L 330.195312 116.398438 L 330.195312 190.769531 L 301.40625 190.769531 Z M 301.40625 116.398438 " fill-opacity="1" fill-rule="nonzero"/></g><g clip-path="url(#58f7274673)"><path fill="#ed2224" d="M 205.40625 187.410156 L 227.804688 187.410156 L 227.804688 113.980469 L 205.40625 131.320312 Z M 205.40625 187.410156 " fill-opacity="1" fill-rule="nonzero"/></g><g clip-path="url(#05ab0d9acc)"><path fill="#ed2224" d="M 245.683594 100.132812 L 238.203125 105.929688 L 238.203125 187.414062 L 260.601562 187.414062 L 260.601562 119.28125 C 260.105469 118.835938 259.636719 118.347656 259.226562 117.808594 Z M 245.683594 100.132812 " fill-opacity="1" fill-rule="nonzero"/></g><g clip-path="url(#259a6ab701)"><path fill="#ed2224" d="M 270.992188 121.792969 L 270.992188 187.414062 L 293.390625 187.414062 L 293.390625 104.792969 L 275.238281 119.660156 C 273.992188 120.6875 272.53125 121.382812 270.992188 121.792969 Z M 270.992188 121.792969 " fill-opacity="1" fill-rule="nonzero"/></g><g clip-path="url(#f5379d8245)"><path fill="#ed2224" d="M 303.78125 187.410156 L 326.179688 187.410156 L 326.179688 77.933594 L 303.78125 96.277344 Z M 303.78125 187.410156 " fill-opacity="1" fill-rule="nonzero"/></g><g clip-path="url(#ee5a5053a5)"><path fill="#ed2224" d="M 342.679688 45.90625 L 339.175781 46.4375 C 335.699219 46.960938 330.007812 47.820312 326.519531 48.34375 L 323.027344 48.875 C 319.550781 49.394531 318.492188 52.070312 320.6875 54.808594 L 322.898438 57.558594 C 323.25 58 323.65625 58.511719 324.070312 59.023438 L 268.921875 104.207031 L 251.542969 81.515625 C 250.765625 80.503906 249.613281 79.84375 248.347656 79.679688 C 247.070312 79.515625 245.796875 79.867188 244.78125 80.640625 L 187.519531 124.710938 L 193.40625 132.269531 L 246.851562 91.164062 L 264.3125 113.945312 C 265.101562 114.976562 266.277344 115.644531 267.570312 115.792969 C 268.867188 115.945312 270.160156 115.5625 271.167969 114.738281 L 330.054688 66.503906 C 330.351562 66.863281 330.632812 67.214844 330.882812 67.53125 L 333.089844 70.285156 C 335.277344 73.023438 338.125 72.601562 339.410156 69.328125 L 340.699219 66.050781 C 341.988281 62.78125 344.089844 57.433594 345.375 54.175781 L 346.667969 50.890625 C 347.953125 47.628906 346.15625 45.382812 342.679688 45.90625 Z M 342.679688 45.90625 " fill-opacity="1" fill-rule="nonzero"/></g></svg>